<svg width="412" height="90" viewBox="0 0 412 90" fill="none" xmlns="http://www.w3.org/2000/svg">
<path fill-rule="evenodd" clip-rule="evenodd" d="M8.61268 89.1023C5.59759 89.1023 4.09004 89.1023 2.93831 88.5154C1.92704 87.996 1.10304 87.171 0.586164 86.1548C0 84.9998 0 83.4866 0 80.4623V0.900391H13.8114C16.8265 0.900391 18.334 0.900391 19.4858 1.48914C20.497 2.00664 21.321 2.83352 21.8379 3.84977C22.4241 5.00477 22.4241 6.51602 22.4241 9.54039V64.0823C22.4241 65.5954 22.4241 66.351 22.7181 66.9285C22.9746 67.4366 23.3867 67.8491 23.8942 68.1079C24.4691 68.4023 25.2238 68.4023 26.7295 68.4023H58.9086C61.9237 68.4023 63.4312 68.4023 64.583 68.991C65.5942 69.5085 66.4182 70.3354 66.9351 71.3516C67.5213 72.5066 67.5213 74.0179 67.5213 77.0423V89.1023H8.61268Z" fill="white"/>
<path fill-rule="evenodd" clip-rule="evenodd" d="M245.809 9.54039C245.809 6.51602 245.809 5.00477 246.395 3.84977C246.91 2.83352 247.734 2.00664 248.747 1.48914C249.899 0.900391 251.406 0.900391 254.419 0.900391H262.347C264.165 0.900391 265.073 0.900391 265.888 1.16664C266.607 1.40102 267.268 1.78727 267.83 2.29727C268.465 2.87289 268.916 3.66414 269.821 5.24664L297.393 53.5523V9.54039C297.393 6.51602 297.393 5.00477 297.979 3.84977C298.496 2.83352 299.318 2.00664 300.331 1.48914C301.483 0.900391 302.991 0.900391 306.006 0.900391H318.924V80.4491C318.924 83.4716 318.924 84.981 318.338 86.136C317.823 87.1523 317 87.9773 315.987 88.4966C314.837 89.0854 313.332 89.0873 310.32 89.0891L302.391 89.0985C300.571 89.1004 299.661 89.1004 298.846 88.8341C298.125 88.5998 297.462 88.2154 296.9 87.7054C296.266 87.1279 295.812 86.3366 294.908 84.7523L267.339 36.4523V80.4623C267.339 83.4866 267.339 84.9998 266.751 86.1548C266.236 87.171 265.412 87.996 264.399 88.5154C263.247 89.1023 261.742 89.1023 258.727 89.1023H245.809V9.54039Z" fill="white"/>
<path fill-rule="evenodd" clip-rule="evenodd" d="M342.158 0.900391H329.24V80.4398C329.24 83.4641 329.24 84.9773 329.826 86.1323C330.343 87.1485 331.167 87.9735 332.179 88.4929C333.33 89.0798 334.838 89.0798 337.853 89.0798H350.771V53.1023H354.295C355.801 53.1023 356.556 53.1023 357.253 53.2935C357.869 53.4623 358.451 53.7398 358.97 54.1148C359.558 54.5366 360.032 55.1235 360.981 56.2973L384.941 85.9091C385.89 87.081 386.366 87.6679 386.952 88.0916C387.471 88.4648 388.053 88.7423 388.671 88.9129C389.368 89.1023 390.121 89.1023 391.628 89.1023H412L380.311 50.0066C378.736 48.0623 377.948 47.0891 377.647 46.0091C377.381 45.0566 377.381 44.0479 377.647 43.0954C377.95 42.0154 378.738 41.0441 380.313 39.1016L380.315 39.0998L411.313 0.900391H391.16C389.66 0.900391 388.911 0.900391 388.216 1.08977C387.602 1.25852 387.021 1.53414 386.503 1.90539C385.917 2.32352 385.443 2.90664 384.493 4.07289L361.064 32.8298C360.114 33.996 359.638 34.5773 359.054 34.9973C358.535 35.3685 357.955 35.6441 357.341 35.8129C356.646 36.0023 355.895 36.0023 354.395 36.0023H350.771V9.54039C350.771 6.51602 350.771 5.00477 350.185 3.84977C349.668 2.83352 348.846 2.00664 347.833 1.48914C346.681 0.900391 345.173 0.900391 342.158 0.900391Z" fill="white"/>
<path fill-rule="evenodd" clip-rule="evenodd" d="M77.7346 87.0525C77.1484 85.8975 77.1484 84.3844 77.1484 81.36V8.64C77.1484 5.61562 77.1484 4.10437 77.7346 2.94937C78.2515 1.93312 79.0736 1.10625 80.0868 0.58875C81.2385 0 82.746 0 85.7611 0H113.931C121.439 0 125.193 0 128.274 0.82875C136.632 3.075 143.162 9.62437 145.402 18.0112C146.226 21.1012 146.226 24.8681 146.226 32.4C146.226 37.3031 144.012 39.1013 142.125 40.6313C140.722 41.7694 139.499 42.7613 139.499 44.7769C139.499 46.7625 140.924 47.7544 142.576 48.9056C144.857 50.4938 147.572 52.3838 147.572 57.6019C147.572 65.1206 147.572 68.8819 146.75 71.9662C144.512 80.3587 137.98 86.9137 129.617 89.16C126.542 89.9869 122.794 89.9887 115.298 89.9906L85.763 90C82.7479 90.0019 81.2404 90.0019 80.0886 89.4131C79.0755 88.8956 78.2515 88.0688 77.7346 87.0525ZM117.3 29.5125C118.989 26.85 120.453 24.5456 120.453 21.6C120.453 15.6356 115.624 10.8 109.667 10.8C103.707 10.8 98.8777 15.8625 98.8777 21.6C98.8777 24.5456 100.382 26.85 102.118 29.5125C104.494 33.1519 107.305 37.4625 107.305 45.0019C107.305 52.5394 104.494 56.85 102.118 60.4913C100.382 63.1519 98.8777 65.4562 98.8777 68.4019C98.8777 74.3662 103.707 79.2019 109.667 79.2019C115.624 79.2019 120.453 74.3662 120.453 68.4019C120.453 65.4562 118.989 63.1519 117.3 60.4913C114.987 56.85 112.251 52.5394 112.251 45.0019C112.251 37.4625 114.987 33.1519 117.3 29.5125Z" fill="#FFD634"/>
<path fill-rule="evenodd" clip-rule="evenodd" d="M180.463 71.5511L176.79 83.0898C176.103 85.2498 175.76 86.3298 175.105 87.1286C174.528 87.8355 173.781 88.383 172.935 88.7205C171.978 89.1011 170.846 89.1011 168.586 89.1011H152.346L178.414 6.48297C179.098 4.31547 179.438 3.23172 180.094 2.42922C180.671 1.72047 181.42 1.17109 182.266 0.833594C183.227 0.449219 184.358 0.449219 186.624 0.449219H204.512C206.778 0.449219 207.911 0.449219 208.87 0.833594C209.719 1.17109 210.466 1.72047 211.043 2.42922C211.698 3.23172 212.039 4.31359 212.723 6.48109L238.806 89.1011H222.556C220.296 89.1011 219.167 89.1011 218.208 88.7205C217.363 88.383 216.616 87.8355 216.037 87.1286C215.384 86.3298 215.039 85.2498 214.352 83.0898L210.679 71.5511H180.463ZM185.044 57.1511H206.097L195.568 24.0742L185.044 57.1511Z" fill="white"/>
</svg>
