<svg width="301" height="90" viewBox="0 0 301 90" fill="none" xmlns="http://www.w3.org/2000/svg">
<path d="M87.998 0H1.99969C1.46933 0 0.960672 0.21054 0.585804 0.58581C0.210534 0.960678 0 1.46934 0 2.0001V87.9984C0 88.5288 0.210534 89.0374 0.585804 89.4123C0.960672 89.7876 1.46933 89.9981 1.99969 89.9981H87.998C88.5288 89.9981 89.0374 89.7876 89.4123 89.4123C89.7876 89.0374 89.9981 88.5288 89.9981 87.9984V2.0001C89.9981 1.46934 89.7876 0.960678 89.4123 0.58581C89.0374 0.21054 88.5288 0 87.998 0ZM59.9986 57.9989C59.9986 58.5293 59.7881 59.0379 59.4128 59.4132C59.0379 59.7881 58.5293 59.999 57.9989 59.999H31.9992C31.4688 59.999 30.9602 59.7881 30.5849 59.4132C30.21 59.0379 29.9995 58.5293 29.9995 57.9989V31.9992C29.9995 31.4688 30.21 30.9602 30.5849 30.5853C30.9602 30.21 31.4688 29.9995 31.9992 29.9995H57.9989C58.5293 29.9995 59.0379 30.21 59.4128 30.5853C59.7881 30.9602 59.9986 31.4688 59.9986 31.9992V57.9989Z" fill="white"/>
<path d="M268.044 30.002H242.045C240.94 30.002 240.045 30.8971 240.045 32.0016V58.0013C240.045 59.1059 240.94 60.0015 242.045 60.0015H268.044C269.149 60.0015 270.044 59.1059 270.044 58.0013V32.0016C270.044 30.8971 269.149 30.002 268.044 30.002Z" fill="white"/>
<path d="M238.033 0.00195312H212.033C210.929 0.00195312 210.033 0.897136 210.033 2.00205V28.0013C210.033 29.1059 210.929 30.0014 212.033 30.0014H238.033C239.138 30.0014 240.033 29.1059 240.033 28.0013V2.00205C240.033 0.897136 239.138 0.00195312 238.033 0.00195312Z" fill="white"/>
<path d="M298.031 0.00195312H272.031C270.927 0.00195312 270.031 0.897136 270.031 2.00205V28.0013C270.031 29.1059 270.927 30.0014 272.031 30.0014H298.031C299.136 30.0014 300.031 29.1059 300.031 28.0013V2.00205C300.031 0.897136 299.136 0.00195312 298.031 0.00195312Z" fill="white"/>
<path d="M238.033 60H212.033C210.929 60 210.033 60.8952 210.033 61.9997V87.9994C210.033 89.1039 210.929 89.9995 212.033 89.9995H238.033C239.138 89.9995 240.033 89.1039 240.033 87.9994V61.9997C240.033 60.8952 239.138 60 238.033 60Z" fill="white"/>
<path d="M298.031 60H272.031C270.927 60 270.031 60.8952 270.031 61.9997V87.9994C270.031 89.1039 270.927 89.9995 272.031 89.9995H298.031C299.136 89.9995 300.031 89.1039 300.031 87.9994V61.9997C300.031 60.8952 299.136 60 298.031 60Z" fill="white"/>
<path d="M192.995 0.00195312H166.996C165.892 0.00195312 164.996 0.897136 164.996 2.00205V28.0013C164.996 29.1059 165.892 30.0014 166.996 30.0014H192.995C194.1 30.0014 194.996 29.1059 194.996 28.0013V2.00205C194.996 0.897136 194.1 0.00195312 192.995 0.00195312Z" fill="white"/>
<path d="M192.995 60H166.996C165.892 60 164.996 60.8952 164.996 61.9997V87.9994C164.996 89.1039 165.892 89.9995 166.996 89.9995H192.995C194.1 89.9995 194.996 89.1039 194.996 87.9994V61.9997C194.996 60.8952 194.1 60 192.995 60Z" fill="white"/>
<path d="M164.997 31.9767C164.997 31.4463 164.786 30.9377 164.411 30.5628C164.036 30.1875 163.527 29.977 162.997 29.977H134.998V2.0001C134.998 1.46934 134.787 0.960678 134.412 0.58581C134.036 0.21054 133.528 0 132.997 0H106.998C106.467 0 105.959 0.21054 105.584 0.58581C105.209 0.960678 104.998 1.46934 104.998 2.0001V87.9534C104.998 88.4838 105.209 88.9924 105.584 89.3673C105.959 89.7426 106.467 89.9531 106.998 89.9531H132.997C133.528 89.9531 134.036 89.7426 134.412 89.3673C134.787 88.9924 134.998 88.4838 134.998 87.9534V59.9765H162.997C163.527 59.9765 164.036 59.7656 164.411 59.3907C164.786 59.0154 164.997 58.5068 164.997 57.9764V31.9767Z" fill="white"/>
</svg>
