<svg width="689" height="121" viewBox="0 0 689 121" fill="none" xmlns="http://www.w3.org/2000/svg">
<path d="M26.4516 32.5052C26.4516 34.3476 26.32 36.19 26.32 38.0324L26.1884 39.48C26.1884 40.138 26.1884 40.9276 26.0568 41.5856V43.0332C25.9252 45.402 25.662 47.7708 25.5304 50.1396L25.3988 51.5872C23.1616 78.302 17.5028 105.938 5.922 119.756L0 114.624C9.4752 103.701 14.6076 82.908 17.108 61.0624L17.2396 59.6148C17.5028 57.5092 17.766 55.272 17.8976 53.1664L18.1608 50.2712C18.5556 44.2176 18.8188 38.2956 19.082 32.5052H2.632V24.7408H19.2136C19.2136 23.03 19.3452 21.4508 19.3452 19.74V18.424C19.3452 17.3712 19.3452 16.1868 19.3452 15.134V9.87C19.3452 9.212 19.3452 8.6856 19.3452 8.0276V6.7116C19.3452 6.4484 19.3452 6.3168 19.3452 6.0536V2.89519H26.8464V4.7376C26.8464 5.0008 26.8464 5.1324 26.8464 5.3956V6.7116C26.8464 7.7644 26.8464 8.8172 26.8464 9.87V11.186C26.8464 11.4492 26.8464 11.7124 26.8464 11.844V13.16L26.7148 15.134V16.45C26.7148 17.108 26.7148 17.766 26.7148 18.424V19.74C26.7148 21.4508 26.5832 23.03 26.5832 24.7408H52.5084L52.3768 29.0836C51.5872 81.7236 50.5344 107.649 47.1128 112.518C45.2704 115.545 42.77 116.992 39.6116 117.387C36.5848 117.914 30.7944 117.65 25.1356 117.387L24.8724 109.491C28.952 109.754 34.6108 110.149 36.5848 110.149C38.2956 110.149 39.7432 109.096 40.5328 107.649C42.77 104.227 44.2176 79.2232 45.1388 32.5052H26.4516ZM101.2 16.7132V110.149H62.3784V16.7132H101.2ZM69.6164 101.99H93.5676V24.2144H69.6164V101.99Z" fill="#211FFF"/>
<path d="M131.388 18.9504V35.532H123.887V11.844H169.289C168.631 8.4224 167.315 4.4744 166.262 1.1844L173.5 0C174.816 3.5532 176.395 8.554 177.053 11.844H221.139V35.532H213.507V18.9504H131.388ZM179.685 35.2688L175.606 40.4012C171.921 37.6376 165.209 32.9 159.551 29.0836L158.366 28.294C157.445 27.636 156.524 27.1096 155.734 26.5832L159.682 21.8456C165.736 25.662 175.343 31.9788 179.685 35.2688ZM151.523 67.3792C143.232 71.3272 132.704 75.4068 123.229 78.5652L120.334 71.3272C129.019 68.8268 140.863 64.0892 149.812 60.0096V34.7424H156.787V56.7196C170.737 49.35 186.002 37.506 194.293 26.1884L201.005 29.4784C191.398 42.3752 174.553 55.5352 159.419 63.6944C160.472 63.9576 162.709 64.484 170.868 64.484H183.502C194.293 64.484 196.004 61.194 196.399 50.4028L202.979 51.4556C201.926 66.3264 198.767 70.8008 183.765 70.8008H170.605C158.103 70.8008 153.234 69.8796 151.523 67.3792ZM142.311 39.8748C138.889 47.2444 132.967 57.904 126.651 63.826L120.465 59.878C126.914 54.614 133.099 44.2176 136.126 37.1112L142.311 39.8748ZM224.429 61.0624L218.507 65.6684C215.086 59.3516 205.874 48.034 199.031 41.454L204.426 37.6376C211.796 43.9544 220.745 54.8772 224.429 61.0624ZM211.796 82.7764V115.018H133.757V83.8292H141.127V107.517H168.368V76.4596H176.001V107.517H204.426L204.295 82.7764H211.796Z" fill="#211FFF"/>
<path d="M339.368 52.2452L332.919 56.9828C331.208 53.8244 328.445 49.6132 325.55 45.9284C263.698 49.7448 251.59 50.666 248.037 52.1136L245.405 44.4808C247.379 43.9544 250.932 40.5328 254.617 36.5848C258.434 32.6368 273.173 15.9236 281.727 1.05279L289.228 4.606C286.991 7.896 284.49 11.4492 281.858 14.8708L281.069 15.9236C279.226 18.2924 277.384 20.6612 275.542 23.03L274.62 24.0828C269.225 30.7944 263.566 37.1112 258.434 42.112L319.628 38.822C315.022 32.5052 307.915 24.8724 302.651 19.74L308.573 15.792C319.628 25.7936 333.84 42.5068 339.368 52.2452ZM327.392 64.6156V114.097H254.222V64.6156H327.392ZM261.987 106.333H319.364V71.9852H261.987V106.333Z" fill="#211FFF"/>
<path d="M461.281 40.2696L457.069 41.9804C456.806 40.5328 456.017 38.9536 455.227 37.1112C440.488 39.6116 436.671 40.4012 435.224 41.0592L433.776 36.5848C434.961 36.4532 436.671 34.4792 438.514 32.242C439.83 30.926 442.988 27.1096 445.883 22.5036C438.645 23.1616 435.882 23.5564 435.092 23.9512L433.645 19.6084C434.434 19.4768 435.487 18.1608 436.671 16.45C437.724 14.7392 442.067 7.896 443.778 1.5792L448.779 3.5532C446.936 8.4224 443.778 13.9496 441.146 17.8976L449.173 17.3712C450.226 15.5288 451.279 13.6864 452.332 11.9756L457.201 14.0812C453.253 20.9244 447.463 28.8204 442.593 34.3476L453.385 32.9C452.727 31.584 451.937 30.0048 451.147 28.6888L455.095 27.1096C457.464 31.1892 460.228 36.9796 461.281 40.2696ZM407.193 39.6116L403.113 41.5856C402.719 40.5328 402.192 39.0852 401.666 37.7692C387.058 40.0064 382.979 40.796 381.399 41.454L379.952 37.1112C381.268 36.9796 382.979 35.0056 384.953 32.6368C386.269 31.584 389.559 27.2412 392.322 22.8984C384.953 23.4248 382.452 23.8196 381.399 24.346L379.952 20.0032C380.741 19.8716 381.926 18.5556 382.847 16.8448C384.031 15.2656 388.506 8.1592 390.217 1.974L395.217 3.8164C393.243 8.8172 390.085 14.3444 387.453 18.2924L395.481 17.766C396.533 15.9236 397.981 14.0812 398.771 12.2388L403.64 14.3444C399.823 21.3192 394.033 29.2152 389.164 34.6108L399.955 33.4264C399.297 31.8472 398.376 30.268 397.586 29.0836L401.534 27.636C403.771 31.3208 406.535 36.5848 407.193 39.6116ZM433.381 13.2916V18.424H405.614V13.2916H418.247C417.326 10.3964 415.089 6.3168 413.51 3.4216L418.774 1.974C420.616 4.8692 422.985 9.0804 423.906 11.4492L418.642 13.2916H433.381ZM379.425 15.9236L374.819 21.714C372.714 19.74 369.292 16.7132 365.871 13.6864L364.686 12.7652C362.712 11.0544 360.738 9.3436 358.896 7.896L363.37 2.89519C365.344 4.3428 367.45 6.0536 369.687 7.7644L370.871 8.6856C374.161 11.4492 377.451 14.0812 379.425 15.9236ZM430.355 23.5564V28.0308H409.167V23.5564H430.355ZM430.355 32.6368V37.3744H409.167V32.6368H430.355ZM377.451 48.692L372.845 54.614C369.292 51.4556 361.528 45.5336 356.264 41.454L360.738 36.19C365.871 39.8748 373.635 45.5336 377.451 48.692ZM430.355 42.77V61.194H408.772V42.77H430.355ZM461.149 59.4832L457.069 61.5888C456.28 57.246 454.043 49.7448 452.069 44.8756L456.017 43.428C458.254 48.2972 460.491 55.6668 461.149 59.4832ZM406.93 57.5092L402.719 59.6148C402.192 55.7984 400.35 49.4816 398.639 45.0072L402.455 43.8228C404.429 47.9024 406.403 54.2192 406.93 57.5092ZM450.621 62.2468L446.278 63.826C445.752 59.6148 444.436 51.8504 443.383 46.5864L447.726 45.1388C448.779 50.7976 450.095 58.4304 450.621 62.2468ZM440.883 46.5864C439.83 52.5084 437.856 59.6148 435.882 63.9576L431.539 61.5888C433.908 57.3776 435.355 50.7976 436.145 45.5336L440.883 46.5864ZM396.928 61.194L392.454 62.7732C391.927 58.8252 390.875 51.7188 389.822 46.9812L394.165 45.7968C395.217 50.666 396.402 57.5092 396.928 61.194ZM387.19 47.376C386.137 53.1664 384.163 60.536 382.321 64.6156L377.978 62.3784C380.215 57.904 381.663 51.4556 382.452 46.1916L387.19 47.376ZM413.905 56.8512H425.091V47.1128H413.905V56.8512ZM439.83 120.151C436.671 120.282 428.907 120.151 421.143 119.624L421.011 113.308C426.801 114.097 435.224 114.492 437.856 114.492C440.356 114.492 441.804 114.097 442.988 113.176C444.699 111.992 446.673 105.675 447.989 99.358H386.532C388.243 94.6204 390.217 86.198 391.533 80.5392H444.304V72.1168H387.19V67.116H451.411V85.6716H397.323C396.797 87.9088 396.139 91.7252 395.481 93.8308H456.411C456.411 93.8308 456.28 96.068 456.017 96.9892C453.779 107.254 451.279 115.282 448.121 117.65C446.015 119.493 443.383 120.151 439.83 120.151ZM378.899 75.5384C377.188 81.0656 374.951 88.0404 372.845 95.1468L372.319 96.5944L371.924 97.9104C369.555 105.675 367.187 113.176 365.344 118.572L358.501 114.097C359.949 109.754 362.186 103.438 364.555 96.3312L364.949 95.0152C365.344 93.8308 365.739 92.778 366.134 91.5936L366.66 90.146C366.66 89.8828 366.792 89.7512 366.792 89.488L367.581 87.3824C369.424 81.592 371.266 75.9332 372.845 71.064L378.899 75.5384Z" fill="#211FFF"/>
<path d="M536.546 14.476C559.312 14.476 571.42 23.688 571.42 43.6912C571.42 65.142 557.602 73.8276 536.414 73.8276H526.018V111.86H517.858V14.476H536.546ZM536.414 66.9844C552.864 66.9844 562.734 61.5888 562.734 43.8228C562.734 27.3728 553.917 21.3192 536.677 21.3192H526.018V66.9844H536.414Z" fill="#211FFF"/>
<path d="M616.392 35.9268C619.155 35.9268 621.261 36.4532 622.972 36.848L621.524 44.3492C619.682 43.8228 617.971 43.5596 615.734 43.5596C606.522 43.5596 601.389 51.0608 597.836 65.9316V111.86H589.809V37.506H596.783L597.441 53.298C601.126 41.8488 607.18 35.9268 616.392 35.9268Z" fill="#211FFF"/>
<path d="M660.145 35.9268C678.042 35.9268 688.702 49.35 688.702 74.4856C688.702 99.0948 677.779 113.439 660.013 113.439C642.247 113.439 631.588 99.2264 631.588 74.7488C631.588 50.008 642.51 35.9268 660.145 35.9268ZM660.145 42.77C647.643 42.77 639.878 52.64 639.878 74.7488C639.878 96.4628 647.248 106.728 660.013 106.728C672.647 106.728 680.148 96.5944 680.148 74.4856C680.148 52.7716 672.91 42.77 660.145 42.77Z" fill="#211FFF"/>
</svg>
