<svg width="440" height="93" viewBox="0 0 440 93" fill="none" xmlns="http://www.w3.org/2000/svg">
<path d="M100.307 82.9923C99.3256 83.0467 98.153 82.3938 96.7895 81.0334C95.5352 79.7275 94.8807 78.5576 94.8262 77.5238C94.7716 76.4899 95.2897 75.2384 96.3805 73.7692C99.4892 68.9808 101.725 62.9137 103.089 55.5679C104.234 49.6368 104.943 41.9646 105.216 32.551H100.553C97.3895 32.551 95.8079 30.973 95.8079 27.8171C95.8079 24.6611 97.3895 23.0831 100.553 23.0831H105.297C105.352 21.233 105.379 18.3491 105.379 14.4313C105.379 11.2209 106.961 9.61575 110.124 9.61575C113.287 9.61575 114.869 11.2209 114.869 14.4313C114.869 18.2947 114.842 21.1786 114.787 23.0831H123.54H128.203C129.567 23.0831 130.549 23.6272 131.149 24.7155C131.858 26.0214 132.185 28.2252 132.13 31.3267C131.748 48.2493 131.339 59.7578 130.903 65.8521C130.358 72.5993 129.512 76.8164 128.367 78.5032C127.494 79.8091 126.567 80.7886 125.586 81.4415C124.768 81.9312 123.622 82.3393 122.15 82.6658C120.786 82.9379 119.259 83.0739 117.569 83.0739C114.078 82.9651 111.978 81.632 111.269 79.0745C110.669 76.898 110.86 75.4016 111.842 74.5854C112.715 73.8236 114.378 73.4972 116.832 73.606C116.996 73.606 117.159 73.606 117.323 73.606C118.468 73.606 119.368 73.1163 120.023 72.1368C120.732 71.103 121.304 67.9198 121.741 62.5873C122.068 57.418 122.368 48.7118 122.641 36.4688C122.695 34.9452 122.559 33.8842 122.232 33.2856C121.959 32.7959 121.468 32.551 120.759 32.551H114.542C114.105 43.3793 113.178 52.3031 111.76 59.3224C110.015 67.8654 107.315 74.9391 103.661 80.5437C102.461 82.1217 101.343 82.9379 100.307 82.9923ZM142.029 77.3605C140.447 77.3605 139.166 76.8708 138.184 75.8913C137.202 74.9119 136.711 73.6332 136.711 72.0552V23.0831C136.711 21.5051 137.202 20.2264 138.184 19.2469C139.166 18.2675 140.447 17.7778 142.029 17.7778H151.437H160.844C162.426 17.7778 163.708 18.2675 164.689 19.2469C165.671 20.2264 166.162 21.5051 166.162 23.0831V72.0552C166.162 73.6332 165.671 74.9119 164.689 75.8913C163.708 76.8708 162.426 77.3605 160.844 77.3605H142.029ZM148.001 67.9742H154.545C155.854 67.9742 156.509 67.3212 156.509 66.0153V29.0414C156.509 27.7354 155.854 27.0825 154.545 27.0825H148.001C146.692 27.0825 146.037 27.7354 146.037 29.0414V47.5691V66.0153C146.037 67.3212 146.692 67.9742 148.001 67.9742ZM199.13 81.6048C197.549 81.6048 196.267 81.115 195.285 80.1356C194.304 79.1562 193.813 77.8774 193.813 76.2994V64.8726C193.813 61.7166 195.394 60.1386 198.558 60.1386C201.721 60.1386 203.302 61.7166 203.302 64.8726V70.7493C203.302 72.0552 203.957 72.7082 205.266 72.7082H217.046V61.1181C217.046 57.9077 218.655 56.3025 221.873 56.3025C225.09 56.3025 226.699 57.9077 226.699 61.1181V72.7082H239.297C240.606 72.7082 241.261 72.0552 241.261 70.7493V64.8726C241.261 61.7166 242.87 60.1386 246.087 60.1386C249.251 60.1386 250.832 61.7166 250.832 64.8726V76.2994C250.832 77.8774 250.341 79.1562 249.36 80.1356C248.378 81.115 247.096 81.6048 245.515 81.6048H222.282H199.13ZM193.24 60.057C190.731 60.7644 188.768 60.0842 187.35 58.0165C185.223 54.8061 186.177 52.7112 190.213 51.7318C195.885 50.317 200.957 48.6574 205.429 46.7529C205.429 46.2632 205.429 45.7735 205.429 45.2838V35.571C205.429 32.7415 206.875 31.3267 209.765 31.3267C212.601 31.3267 214.019 32.7415 214.019 35.571V42.8352C221.491 38.9174 227.435 34.3467 231.853 29.123C233.326 27.1097 235.289 26.6472 237.743 27.7354C240.797 29.0958 241.288 31.0819 239.216 33.6937C234.58 38.9718 228.772 43.7058 221.791 47.8956H231.608C232.153 47.8956 232.753 47.8412 233.407 47.7324C234.88 43.869 237.116 42.5087 240.116 43.6514C241.206 44.0867 241.915 44.9573 242.243 46.2632C242.515 47.4059 242.515 48.7118 242.243 50.181C241.534 52.1943 240.416 53.5818 238.888 54.3436C237.47 55.051 235.316 55.4047 232.426 55.4047H225.227H218.028C214.046 55.4047 211.21 54.9966 209.52 54.1804C204.393 56.4113 198.967 58.3702 193.24 60.057ZM256.477 49.528C253.859 51.3781 251.732 51.0788 250.096 48.6302C249.223 47.4331 248.187 46.1544 246.987 44.7941C246.715 44.4676 246.306 44.0051 245.76 43.4065C244.56 41.9918 243.633 40.9579 242.979 40.3049C240.852 38.1828 241.07 36.2239 243.633 34.4283C245.542 33.1224 247.315 33.204 248.951 34.6731C252.714 38.2644 255.659 41.3932 257.786 44.0595C258.604 45.2022 258.877 46.2088 258.604 47.0794C258.386 47.8956 257.677 48.7118 256.477 49.528ZM194.958 48.467C193.213 49.7729 191.44 49.8273 189.641 48.6302C186.586 46.5081 186.477 44.2771 189.313 41.9373C190.895 40.1961 192.286 38.1828 193.486 35.8974C194.576 33.2856 196.458 32.4694 199.13 33.4488C201.693 34.3739 202.512 36.1151 201.584 38.6725C200.93 40.2505 200.057 41.8829 198.967 43.5697C197.767 45.4198 196.431 47.0522 194.958 48.467ZM222.609 34.5099C221.791 34.6731 220.836 34.3467 219.746 33.5305C218.219 32.4966 216.282 31.3811 213.937 30.184C212.356 29.4767 211.401 28.4972 211.074 27.2457C210.801 25.9942 211.183 24.6883 212.219 23.3279L212.383 23.1647H198.721C197.412 23.1647 196.758 23.8177 196.758 25.1236V27.0008C196.758 30.1024 195.203 31.6532 192.095 31.6532C188.932 31.6532 187.35 30.1024 187.35 27.0008V19.8183C187.35 18.2403 187.841 16.9616 188.822 15.9821C189.804 15.0027 191.086 14.513 192.667 14.513H216.882V13.4519C216.882 10.1871 218.518 8.55469 221.791 8.55469C225.063 8.55469 226.699 10.1871 226.699 13.4519V14.513H251.569C253.15 14.513 254.432 15.0027 255.413 15.9821C256.395 16.9616 256.886 18.2403 256.886 19.8183V26.756C256.886 30.0208 255.25 31.6532 251.978 31.6532C248.651 31.6532 246.987 30.0208 246.987 26.756V25.1236C246.987 23.8177 246.333 23.1647 245.024 23.1647H231.362H215.819C219.364 24.6339 222.309 26.103 224.654 27.5722C225.636 28.2796 226.154 29.0141 226.208 29.7759C226.263 30.5377 225.881 31.4355 225.063 32.4694C224.245 33.6121 223.427 34.2923 222.609 34.5099ZM290.345 81.3599C288.764 81.3599 287.482 80.8702 286.5 79.8907C285.518 78.9113 285.028 77.6326 285.028 76.0546V54.0171C285.028 52.4391 285.518 51.1604 286.5 50.181C287.482 49.2015 288.764 48.7118 290.345 48.7118H312.023H333.702C335.284 48.7118 336.565 49.2015 337.547 50.181C338.529 51.1604 339.02 52.4391 339.02 54.0171V76.0546C339.02 77.6326 338.529 78.9113 337.547 79.8907C336.565 80.8702 335.284 81.3599 333.702 81.3599H290.345ZM296.89 72.0552H311.778H328.63V57.9349H296.89C295.581 57.9349 294.926 58.5879 294.926 59.8938V70.0963C294.926 71.4022 295.581 72.0552 296.89 72.0552ZM345.81 42.5903C342.81 44.9301 340.301 44.5764 338.283 41.5292C337.793 40.8219 337.056 39.8696 336.075 38.6725C330.948 38.9446 323.176 39.3255 312.76 39.8152C308.887 39.9785 306.024 40.1145 304.17 40.2233C301.989 40.3321 298.826 40.4682 294.681 40.6314C288.409 40.8491 283.91 41.0123 281.183 41.1211C279.601 41.1756 278.483 40.8219 277.829 40.0601C277.229 39.3527 276.874 38.1556 276.765 36.4688C276.602 33.0952 278.074 31.3811 281.183 31.3267C282.655 31.3267 285.028 31.2723 288.3 31.1635C288.573 31.1635 288.791 31.1635 288.954 31.1635C292.827 25.0692 296.126 18.9205 298.853 12.7173C299.562 11.0305 300.462 9.94223 301.553 9.45251C302.698 8.90837 304.17 8.93558 305.97 9.53413C309.951 10.7856 310.905 13.3159 308.833 17.1248C306.106 21.9676 303.352 26.5111 300.571 30.7554C306.788 30.5377 315.95 30.1568 328.058 29.6127C327.621 29.1774 326.967 28.5516 326.094 27.7354C325.222 26.8648 324.594 26.2391 324.213 25.8582C321.595 23.5184 321.704 21.2602 324.54 19.0837C326.721 17.3969 328.821 17.4513 330.839 19.2469C337.929 25.3412 343.437 31.0274 347.364 36.3055C348.182 37.5571 348.455 38.6725 348.182 39.652C347.909 40.577 347.119 41.5564 345.81 42.5903ZM423.69 84.6247C422.927 84.6791 421.372 84.6791 419.027 84.6247C417.555 84.6247 416.409 84.6247 415.591 84.6247C412.701 84.5703 410.928 83.3188 410.274 80.8702V80.7886L410.192 80.6253C409.156 78.4488 410.028 77.4693 412.81 77.687C416.246 77.8502 418.918 77.9318 420.827 77.9318C422.463 77.9318 423.581 77.7142 424.181 77.2789C424.672 76.898 425.163 76.245 425.653 75.32C426.253 73.7964 425.899 73.0346 424.59 73.0346H394.649C394.649 73.0891 394.621 73.1435 394.567 73.1979C394.349 73.8508 393.912 74.3678 393.258 74.7487C392.603 75.0751 391.894 75.184 391.131 75.0751C389.386 74.8575 388.104 74.3406 387.286 73.5244C386.359 72.5993 386.141 71.4022 386.631 69.9331C387.286 67.6477 387.831 65.4984 388.268 63.4851C388.54 62.1247 389.195 61.0365 390.231 60.2203C391.267 59.4041 392.494 58.996 393.912 58.996H422.463C423.336 58.996 423.772 58.5607 423.772 57.69V57.4452C423.772 56.7922 423.445 56.4657 422.79 56.4657H389.495C387.695 56.4657 386.795 55.5407 386.795 53.6907C386.795 51.895 387.695 50.9972 389.495 50.9972H409.701H427.371C428.953 50.9972 430.235 51.4869 431.216 52.4663C432.198 53.4458 432.689 54.7245 432.689 56.3025V59.2408C432.689 60.8188 432.198 62.0975 431.216 63.077C430.235 64.0564 428.953 64.5461 427.371 64.5461H396.857L396.203 67.0764H430.889C434.761 67.0764 436.097 69.8787 434.898 75.4832C433.861 78.9657 432.634 81.3055 431.216 82.5026C429.635 83.7541 427.126 84.4615 423.69 84.6247ZM375.833 79.1562C374.579 82.2033 372.452 82.8835 369.452 81.1967C366.834 79.7275 366.071 77.7414 367.161 75.2384C368.47 72.1368 369.588 69.3889 370.515 66.9947C371.552 64.2741 372.67 61.1997 373.87 57.7717C374.906 54.4524 376.951 53.7451 380.005 55.6495C382.078 57.0099 382.759 58.8055 382.05 61.0365C380.414 66.5322 378.342 72.5721 375.833 79.1562ZM391.785 49.6096C389.767 49.6096 388.758 48.603 388.758 46.5897V38.4277C387.613 42.6719 386.25 46.1 384.668 48.7118C381.396 47.1338 380.36 44.5492 381.559 40.9579C382.705 37.4754 385.05 36.1423 388.595 36.9585H388.758V33.7753C388.268 33.8297 387.504 33.8842 386.468 33.9386C385.377 34.0474 384.586 34.129 384.095 34.1834C382.296 34.2378 381.287 33.34 381.069 31.49C380.85 29.5311 381.778 28.4972 383.85 28.3884L385.65 28.3068C385.704 28.1979 385.813 28.0619 385.977 27.8987C386.85 26.8104 387.504 25.9942 387.94 25.4501C386.904 24.253 385.432 22.8654 383.523 21.2874C382.923 20.7433 382.623 19.9815 382.623 19.0021C382.677 18.1859 382.95 17.3697 383.441 16.5535C383.714 16.1182 384.068 15.8189 384.504 15.6556C384.941 15.438 385.377 15.4652 385.813 15.7373C386.413 14.649 387.231 13.0438 388.268 10.9217C389.14 9.07162 390.449 8.6091 392.194 9.53413C393.994 10.4592 394.321 11.8467 393.176 13.6968C392.522 14.785 391.567 16.3086 390.313 18.2675C390.149 18.5396 390.013 18.7572 389.904 18.9205C390.067 19.0837 390.34 19.3558 390.722 19.7367C391.104 20.0631 391.376 20.3352 391.54 20.5529C392.031 19.8455 392.712 18.8388 393.585 17.5329C394.021 16.8255 394.594 16.3902 395.303 16.227C396.012 16.0637 396.748 16.1998 397.512 16.6351L399.802 17.941V16.9616C399.802 16.6895 399.939 16.5535 400.211 16.5535H418.045C418.809 16.5535 419.191 16.9344 419.191 17.6961V17.941L420.663 15.9005C421.1 15.3564 421.59 15.302 422.136 15.7373L422.299 15.9005C423.39 13.9416 424.235 12.282 424.835 10.9217C425.653 9.23486 426.962 8.85396 428.762 9.77899C430.616 10.6496 430.944 12.0099 429.744 13.86C428.326 16.091 427.126 17.8866 426.144 19.2469C426.635 19.6278 427.208 20.2264 427.862 21.0426C428.517 20.172 429.389 18.9205 430.48 17.288C431.025 16.4174 431.598 15.9277 432.198 15.8189C432.798 15.6556 433.561 15.8189 434.489 16.3086C436.397 17.3425 436.643 18.73 435.225 20.4712C432.989 23.2463 430.807 25.8038 428.68 28.1435L433.098 27.9803V27.8987L433.016 27.8171C432.253 26.2391 432.716 25.1236 434.407 24.4706C435.825 23.8721 436.861 24.2258 437.515 25.5317C438.279 27.1641 439.015 29.0686 439.724 31.2451C440.051 32.6054 439.342 33.6393 437.597 34.3467C436.07 34.9996 435.198 34.7276 434.979 33.5305C434.979 33.4761 434.979 33.4216 434.979 33.3672L431.789 33.6121V46.5897C431.789 48.603 430.78 49.6096 428.762 49.6096C426.69 49.6096 425.653 48.603 425.653 46.5897V38.4277C425.163 40.4954 424.535 42.5359 423.772 44.5492C423.227 45.7463 422.408 46.5081 421.318 46.8346C420.227 47.161 419.054 46.9706 417.8 46.2632L417.718 46.1816H417.555V47.814C417.555 48.5214 417.2 48.8751 416.491 48.8751H408.229C404.138 48.8751 402.093 46.8346 402.093 42.7535C402.093 38.6725 404.138 36.632 408.229 36.632H413.137C414.5 36.632 415.564 37.0401 416.327 37.8563C417.145 38.6181 417.555 39.6792 417.555 41.0395V44.7124C418.373 42.8624 418.973 41.3116 419.354 40.0601C419.681 38.6997 420.309 37.7475 421.236 37.2034C422.218 36.6048 423.363 36.4416 424.672 36.7137L425.653 36.9585V33.9386L421.563 34.1834C419.654 34.2923 418.618 33.3944 418.454 31.49C418.291 29.4767 419.218 28.4428 421.236 28.3884H421.972C422.681 27.5178 423.363 26.7016 424.017 25.9398C422.545 23.9265 420.936 22.1853 419.191 20.7161V21.4507C419.191 21.5595 419.136 21.6139 419.027 21.6139H409.456H402.502C401.684 21.6139 401.029 21.3691 400.539 20.8793C400.048 20.3896 399.802 19.7367 399.802 18.9205V18.6756C397.13 22.3213 394.649 25.4229 392.358 27.9803L395.876 27.8987C395.876 27.8443 395.848 27.7898 395.794 27.7354C395.412 26.4295 395.876 25.5317 397.185 25.042C398.493 24.5522 399.421 24.9059 399.966 26.103C400.62 27.8987 401.193 29.8848 401.684 32.0613C401.902 33.1496 401.302 33.9658 399.884 34.5099C399.23 34.782 398.657 34.8092 398.166 34.5915C397.73 34.3739 397.457 33.9386 397.348 33.2856C397.348 33.2312 397.348 33.1768 397.348 33.1224L394.812 33.3672V46.5897C394.812 48.603 393.803 49.6096 391.785 49.6096ZM438.17 46.8346C436.425 47.4875 435.307 46.889 434.816 45.0389C434.652 44.2227 434.407 43.4337 434.08 42.6719C434.025 42.5631 433.97 42.3727 433.916 42.1006C433.534 41.0123 433.234 40.1961 433.016 39.652C432.362 37.9652 432.907 36.8769 434.652 36.3872C436.125 35.8975 437.188 36.3872 437.843 37.8563C438.606 39.9785 439.288 42.019 439.888 43.9778C440.27 45.3926 439.697 46.3448 438.17 46.8346ZM399.639 45.2838C397.839 45.7735 396.83 45.1749 396.612 43.4881C396.557 43.1072 396.421 42.5359 396.203 41.7741C395.985 40.6858 395.794 39.8696 395.63 39.3255C395.248 37.8019 395.848 36.8769 397.43 36.5504C398.957 36.2239 399.911 36.7409 400.293 38.1012C400.675 39.4615 401.057 40.9579 401.439 42.5903C401.766 43.9506 401.166 44.8485 399.639 45.2838ZM409.21 44.5492H409.701H411.01C411.501 44.5492 411.746 44.3043 411.746 43.8146V42.5087C411.746 41.4748 411.228 40.9579 410.192 40.9579H409.456C408.256 40.9579 407.656 41.5565 407.656 42.7535V42.9984C407.656 44.0323 408.174 44.5492 409.21 44.5492ZM375.178 44.2227C374.088 44.386 372.915 43.9234 371.661 42.8352C370.57 41.9101 369.288 41.0123 367.816 40.1417C365.034 38.4549 364.625 36.3328 366.589 33.7753C368.17 31.762 369.997 31.3267 372.07 32.4694C372.561 32.7415 373.324 33.1768 374.36 33.7753C374.851 34.0474 375.233 34.265 375.506 34.4283C375.833 34.6459 376.324 34.9724 376.978 35.4077C377.36 35.6798 377.633 35.8702 377.796 35.9791C379.869 37.6659 380.06 39.6248 378.369 41.8557C377.278 43.2705 376.215 44.0595 375.178 44.2227ZM404.384 34.4283C402.911 34.4283 402.175 33.6937 402.175 32.2245C402.175 30.7554 402.911 30.0208 404.384 30.0208H415.346C416.818 30.0208 417.555 30.7554 417.555 32.2245C417.555 33.6937 416.818 34.4283 415.346 34.4283H409.865H404.384ZM404.384 28.1435C402.911 28.1435 402.175 27.4089 402.175 25.9398C402.175 24.4706 402.911 23.736 404.384 23.736H409.865H415.346C416.818 23.736 417.555 24.4706 417.555 25.9398C417.555 27.4089 416.818 28.1435 415.346 28.1435H404.384ZM379.923 20.8793C377.742 23.6 375.424 23.7905 372.97 21.4507C372.861 21.3963 372.724 21.2874 372.561 21.1242C372.179 20.7977 371.879 20.5529 371.661 20.3896C371.388 20.172 370.979 19.8727 370.434 19.4918C369.888 19.0565 369.479 18.7572 369.207 18.594C366.643 16.9072 366.371 14.8394 368.388 12.3908C370.025 10.432 371.906 10.0783 374.033 11.3298C375.833 12.4725 377.714 13.7784 379.678 15.2475C380.714 16.1726 381.232 17.0704 381.232 17.941C381.232 18.7572 380.796 19.7367 379.923 20.8793ZM405.038 14.513C403.511 14.513 402.747 13.724 402.747 12.146C402.747 10.6224 403.511 9.86061 405.038 9.86061H409.783H414.528C416.055 9.86061 416.818 10.6224 416.818 12.146C416.818 13.724 416.055 14.513 414.528 14.513H405.038Z" fill="white"/>
<path d="M53.3873 25.2241H18.7739C13.9948 25.2241 10.1206 29.1031 10.1206 33.888C10.1206 38.673 13.9948 42.5519 18.7739 42.5519H53.3873C58.1664 42.5519 62.0406 38.673 62.0406 33.888C62.0406 29.1031 58.1664 25.2241 53.3873 25.2241Z" fill="white"/>
<path d="M43.45 50.4492H8.69C3.89065 50.4492 0 54.3282 0 59.1131C0 63.8981 3.89065 67.777 8.69 67.777H43.45C48.2494 67.777 52.14 63.8981 52.14 59.1131C52.14 54.3282 48.2494 50.4492 43.45 50.4492Z" fill="white"/>
<path d="M27.0519 75.6724H24.6473C19.9044 75.6724 16.0596 79.5513 16.0596 84.3363C16.0596 89.1212 19.9044 93.0002 24.6473 93.0002H27.0519C31.7947 93.0002 35.6396 89.1212 35.6396 84.3363C35.6396 79.5513 31.7947 75.6724 27.0519 75.6724Z" fill="white"/>
<path d="M43.4542 0H41.0226C36.2264 0 32.3384 3.87897 32.3384 8.66391C32.3384 13.4489 36.2264 17.3278 41.0226 17.3278H43.4542C48.2503 17.3278 52.1384 13.4489 52.1384 8.66391C52.1384 3.87897 48.2503 0 43.4542 0Z" fill="white"/>
</svg>
