<svg width="689" height="121" viewBox="0 0 689 121" fill="none" xmlns="http://www.w3.org/2000/svg">
<path d="M26.4522 32.5046C26.4522 34.347 26.3206 36.1894 26.3206 38.0318L26.189 39.4794C26.189 40.1374 26.189 40.927 26.0574 41.585V43.0326C25.9258 45.4014 25.6626 47.7702 25.531 50.139L25.3994 51.5866C23.1622 78.3014 17.5034 105.937 5.92262 119.755L0.000619862 114.623C9.47582 103.7 14.6082 82.9074 17.1086 61.0618L17.2402 59.6142C17.5034 57.5086 17.7666 55.2714 17.8982 53.1658L18.0298 51.7182L18.1614 50.2706C18.5562 44.217 18.8194 38.295 19.0826 32.5046H2.63262V24.7402H19.2142C19.2142 23.0294 19.3458 21.4502 19.3458 19.7394V18.4234C19.3458 17.3706 19.3458 16.1862 19.3458 15.1334V12.5014V11.1854V9.86937C19.3458 9.21137 19.3458 8.68497 19.3458 8.02697V6.71097C19.3458 6.44776 19.3458 6.31616 19.3458 6.05297V2.89456H26.847V4.73697C26.847 5.00017 26.847 5.13176 26.847 5.39497V6.71097C26.847 7.76377 26.847 8.81656 26.847 9.86937V11.1854C26.847 11.4486 26.847 11.7118 26.847 11.8434V13.1594L26.7154 15.1334V16.4494C26.7154 17.1074 26.7154 17.7654 26.7154 18.4234V19.7394C26.7154 21.4502 26.5838 23.0294 26.5838 24.7402H52.509L52.3774 29.083C51.5878 81.723 50.535 107.648 47.1134 112.517C45.271 115.544 42.7706 116.992 39.6122 117.387C36.5854 117.913 30.795 117.65 25.1362 117.387L24.873 109.491C28.9526 109.754 34.6114 110.149 36.5854 110.149C38.2962 110.149 39.7438 109.096 40.5334 107.648C42.7706 104.227 44.2182 79.2226 45.1394 32.5046H26.4522ZM101.201 16.7126V110.149H62.379V16.7126H101.201ZM69.617 101.989H93.5682V24.2138H69.617V101.989ZM131.389 18.9498V35.5314H123.888V11.8434H169.29C168.632 8.42177 167.316 4.47376 166.263 1.18377L173.501 -0.000633326C174.817 3.55257 176.396 8.55337 177.054 11.8434H221.14V35.5314H213.507V18.9498H131.389ZM179.686 35.2682L175.606 40.4006C171.922 37.637 165.21 32.8994 159.551 29.083L158.367 28.2934C157.446 27.6354 156.524 27.109 155.735 26.5826L159.683 21.845C165.736 25.6614 175.343 31.9782 179.686 35.2682ZM151.524 67.3786C143.233 71.3266 132.705 75.4062 123.23 78.5646L120.334 71.3266C129.02 68.8262 140.864 64.0886 149.813 60.009V34.7418H156.788V56.719C170.737 49.3494 186.003 37.5054 194.294 26.1878L201.005 29.4778C191.398 42.3746 174.554 55.5346 159.42 63.6938C160.472 63.957 162.71 64.4834 170.869 64.4834H183.502C194.294 64.4834 196.004 61.1934 196.399 50.4022L202.979 51.455C201.926 66.3258 198.768 70.8002 183.766 70.8002H170.606C158.104 70.8002 153.234 69.879 151.524 67.3786ZM142.312 39.8742C138.89 47.2438 132.968 57.9034 126.651 63.8254L120.466 59.8774C126.914 54.6134 133.1 44.217 136.126 37.1106L142.312 39.8742ZM224.43 61.0618L218.508 65.6678C215.086 59.351 205.874 48.0334 199.031 41.4534L204.427 37.637C211.796 43.9538 220.745 54.8766 224.43 61.0618ZM211.796 82.7758V115.018H133.758V83.8286H141.127V107.517H168.368V76.459H176.001V107.517H204.427L204.295 82.7758H211.796ZM339.368 52.2446L332.92 56.9822C331.209 53.8238 328.445 49.6126 325.55 45.9278C263.698 49.7442 251.591 50.6654 248.038 52.113L245.406 44.4802C247.38 43.9538 250.933 40.5322 254.618 36.5842C258.434 32.6362 273.173 15.923 281.727 1.05216L289.229 4.60536C286.991 7.89537 284.491 11.4486 281.859 14.8702L281.069 15.923C279.227 18.2918 277.385 20.6606 275.542 23.0294L274.621 24.0822C269.225 30.7938 263.567 37.1106 258.434 42.1114L319.628 38.8214C315.022 32.5046 307.916 24.8718 302.652 19.7394L308.574 15.7914C319.628 25.793 333.841 42.5062 339.368 52.2446ZM327.393 64.615V114.097H254.223V64.615H327.393ZM261.987 106.332H319.365V71.9846H261.987V106.332ZM461.281 40.269L457.07 41.9798C456.807 40.5322 456.017 38.953 455.228 37.1106C440.488 39.611 436.672 40.4006 435.224 41.0586L433.777 36.5842C434.961 36.4526 436.672 34.4786 438.514 32.2414C439.83 30.9254 442.989 27.109 445.884 22.503C438.646 23.161 435.882 23.5558 435.093 23.9506L433.645 19.6078C434.435 19.4762 435.488 18.1602 436.672 16.4494C437.725 14.7386 442.068 7.89537 443.778 1.57856L448.779 3.55257C446.937 8.42177 443.778 13.949 441.146 17.897L449.174 17.3706C450.227 15.5282 451.28 13.6858 452.332 11.975L457.202 14.0806C453.254 20.9238 447.463 28.8198 442.594 34.347L453.385 32.8994C452.727 31.5834 451.938 30.0042 451.148 28.6882L455.096 27.109C457.465 31.1886 460.228 36.979 461.281 40.269ZM407.194 39.611L403.114 41.585C402.719 40.5322 402.193 39.0846 401.666 37.7686C387.059 40.0058 382.979 40.7954 381.4 41.4534L379.952 37.1106C381.268 36.979 382.979 35.005 384.953 32.6362C386.269 31.5834 389.559 27.2406 392.323 22.8978C384.953 23.4242 382.453 23.819 381.4 24.3454L379.952 20.0026C380.742 19.871 381.926 18.555 382.848 16.8442C384.032 15.265 388.506 8.15856 390.217 1.97336L395.218 3.81576C393.244 8.81656 390.086 14.3438 387.454 18.2918L395.481 17.7654C396.534 15.923 397.982 14.0806 398.771 12.2382L403.64 14.3438C399.824 21.3186 394.034 29.2146 389.164 34.6102L399.956 33.4258C399.298 31.8466 398.376 30.2674 397.587 29.083L401.535 27.6354C403.772 31.3202 406.536 36.5842 407.194 39.611ZM433.382 13.291V18.4234H405.614V13.291H418.248C417.327 10.3958 415.09 6.31616 413.51 3.42096L418.774 1.97336C420.617 4.86857 422.986 9.07977 423.907 11.4486L418.643 13.291H433.382ZM379.426 15.923L374.82 21.7134C372.714 19.7394 369.293 16.7126 365.871 13.6858L364.687 12.7646C362.713 11.0538 360.739 9.34296 358.896 7.89537L363.371 2.89456C365.345 4.34217 367.45 6.05297 369.688 7.76377L370.872 8.68497C374.162 11.4486 377.452 14.0806 379.426 15.923ZM430.355 23.5558V28.0302H409.168V23.5558H430.355ZM430.355 32.6362V37.3738H409.168V32.6362H430.355ZM377.452 48.6914L372.846 54.6134C369.293 51.455 361.528 45.533 356.264 41.4534L360.739 36.1894C365.871 39.8742 373.636 45.533 377.452 48.6914ZM430.355 42.7694V61.1934H408.773V42.7694H430.355ZM461.15 59.4826L457.07 61.5882C456.28 57.2454 454.043 49.7442 452.069 44.875L456.017 43.4274C458.254 48.2966 460.492 55.6662 461.15 59.4826ZM406.93 57.5086L402.719 59.6142C402.193 55.7978 400.35 49.481 398.64 45.0066L402.456 43.8222C404.43 47.9018 406.404 54.2186 406.93 57.5086ZM450.622 62.2462L446.279 63.8254C445.752 59.6142 444.436 51.8498 443.384 46.5858L447.726 45.1382C448.779 50.797 450.095 58.4298 450.622 62.2462ZM440.883 46.5858C439.83 52.5078 437.856 59.6142 435.882 63.957L431.54 61.5882C433.908 57.377 435.356 50.797 436.146 45.533L440.883 46.5858ZM396.929 61.1934L392.454 62.7726C391.928 58.8246 390.875 51.7182 389.822 46.9806L394.165 45.7962C395.218 50.6654 396.402 57.5086 396.929 61.1934ZM387.19 47.3754C386.138 53.1658 384.164 60.5354 382.321 64.615L377.978 62.3778C380.216 57.9034 381.663 51.455 382.453 46.191L387.19 47.3754ZM413.905 56.8506H425.091V47.1122H413.905V56.8506ZM439.83 120.15C436.672 120.282 428.908 120.15 421.143 119.624L421.012 113.307C426.802 114.097 435.224 114.491 437.856 114.491C440.357 114.491 441.804 114.097 442.989 113.175C444.7 111.991 446.674 105.674 447.99 99.3574H386.532C388.243 94.6198 390.217 86.1974 391.533 80.5386H444.305V72.1162H387.19V67.1154H451.411V85.671H397.324C396.797 87.9082 396.139 91.7246 395.481 93.8302H456.412C456.412 93.8302 456.28 96.0674 456.017 96.9886C453.78 107.253 451.28 115.281 448.121 117.65C446.016 119.492 443.384 120.15 439.83 120.15ZM378.9 75.5378C377.189 81.065 374.952 88.0398 372.846 95.1462L372.32 96.5938L371.925 97.9098C369.556 105.674 367.187 113.175 365.345 118.571L358.502 114.097C359.949 109.754 362.186 103.437 364.555 96.3306L364.95 95.0146C365.345 93.8302 365.74 92.7774 366.134 91.593L366.661 90.1454C366.661 89.8822 366.792 89.7506 366.792 89.4874L367.582 87.3818C369.424 81.5914 371.267 75.9326 372.846 71.0634L378.9 75.5378ZM536.546 14.4754C559.313 14.4754 571.42 23.6874 571.42 43.6906C571.42 65.1414 557.602 73.827 536.415 73.827H526.018V111.859H517.859V14.4754H536.546ZM536.415 66.9838C552.865 66.9838 562.735 61.5882 562.735 43.8222C562.735 27.3722 553.917 21.3186 536.678 21.3186H526.018V66.9838H536.415ZM616.392 35.9262C619.156 35.9262 621.262 36.4526 622.972 36.8474L621.525 44.3486C619.682 43.8222 617.972 43.559 615.734 43.559C606.522 43.559 601.39 51.0602 597.837 65.931V111.859H589.809V37.5054H596.784L597.442 53.2974C601.127 41.8482 607.18 35.9262 616.392 35.9262ZM660.145 35.9262C678.043 35.9262 688.703 49.3494 688.703 74.485C688.703 99.0942 677.78 113.439 660.014 113.439C642.248 113.439 631.588 99.2258 631.588 74.7482C631.588 50.0074 642.511 35.9262 660.145 35.9262ZM660.145 42.7694C647.643 42.7694 639.879 52.6394 639.879 74.7482C639.879 96.4622 647.249 106.727 660.014 106.727C672.647 106.727 680.149 96.5938 680.149 74.485C680.149 52.771 672.911 42.7694 660.145 42.7694Z" fill="white"/>
</svg>
